<svg xmlns="http://www.w3.org/2000/svg" xmlns:xlink="http://www.w3.org/1999/xlink" width="32" height="32" viewBox="0 0 32 32">
  <defs>
    <polygon id="mitid-a" points=".004 .013 3.532 .013 3.532 6.942 .004 6.942"/>
  </defs>
  <g fill="none" fill-rule="evenodd" transform="translate(1 12)">
    <path fill="#0073D4" d="M24.2565544 3.95430669C24.2565544 2.7465 24.2565544 1.53869331 24.2566171.330914498 24.256645.12660223 24.2569517.12579368 24.4648606.126434944 24.9712082.127968401 25.4782249.114167286 25.9836803.13622119 26.7225558.168423792 27.4396004.315747212 28.1039777.656174721 29.0304089 1.13087732 29.6164684 1.88006877 29.8653625 2.88978067 29.9909108 3.39922305 30.0098978 3.9165 29.9600743 4.43829368 29.9222677 4.83426022 29.8322677 5.21556134 29.677723 5.58202974 29.3934201 6.25616543 28.9300929 6.77360967 28.3009015 7.14116543 27.7434758 7.46676022 27.1353067 7.6381171 26.4980855 7.72373978 26.0449071 7.78465985 25.5905576 7.77911152 25.1357342 7.78000372 24.898829 7.78038366 24.6618959 7.7806171 24.4249907 7.77986431 24.2582621 7.77933457 24.2567844 7.77794052 24.2567286 7.60557993 24.2564498 6.38848885 24.2565544 5.17136989 24.2565544 3.95430669M5.78714219 3.01116914C5.66664033 3.13680112 5.59479089 3.27737732 5.50626859 3.40510037 5.41629647 3.53488662 5.33109201 3.66796283 5.24368494 3.79950558 5.15627788 3.93107621 5.06859201 4.06245167 4.98129647 4.19410595 4.89146375 4.32960781 4.80196561 4.46533271 4.71241171 4.60102974 4.62542286 4.73279554 4.53868494 4.86470074 4.45161245 4.99643866 4.36451208 5.12817658 4.27730019 5.25980297 4.189921 5.39134572 4.10251394 5.52291636 4.01485595 5.65429182 3.92730948 5.78575093 3.84043216 5.91615056 3.75355483 6.04657807 3.65468866 6.19507249 3.61239312 6.1374145 3.58172398 6.09868773 3.5543448 6.05781413 2.91012546 5.09725651 2.26635223 4.13639219 1.62188197 3.17597398 1.5866961 3.12350186 1.54618494 3.07459851 1.49173327 3.00230297 1.47500465 3.05717286 1.46170539 3.08452416 1.45911245 3.11282342 1.45484665 3.15893866 1.45735595 3.20566729 1.45735595 3.25214498 1.45732807 4.69707993 1.45735595 6.14201487 1.4572723 7.58694981 1.4572723 7.77865985 1.45702138 7.77899442 1.26670539 7.77910595.899679368 7.77936804.532625465 7.77960781.165599442 7.77893866.00288568773 7.77863197.000404275093 7.77645725.000292750929 7.61616914-.000181226766 6.84492379.00000333434489 6.07367844.00000333434489 5.30243309.00000333434489 3.74131784.00000333434489 2.18023048.0000975836431.619143123.0000975836431.40532342.000264869888.405184015.212746283.405100372.551919145.404988848.891175651.409756506 1.23023699.402563197 1.35040428.400053903 1.42490242.436187732 1.49103625.540184015 2.15156599 1.57878067 2.81703067 2.61425465 3.48140799 3.65039777 3.53343401 3.7315316 3.58794145 3.81107621 3.65502323 3.91208922 3.70253253 3.85186617 3.73908457 3.81288848 3.76741171 3.76864126 4.21799721 3.06436617 4.667579 2.3594777 5.11730019 1.65467286 5.35710502 1.27878067 5.59902881.904198885 5.83479089.525769517 5.8906645.436104089 5.95576673.401280669 6.06135223.402981413 6.41435409.408641264 6.76752323.404626394 7.12063662.40532342 7.28675186.405657993 7.2894842.408446097 7.28951208.579775093 7.28970725 2.56365056 7.28970725 4.5475539 7.28970725 6.53145725 7.28970725 6.8799145 7.28970725 7.22837175 7.28970725 7.576829 7.28970725 7.60933829 7.28842472 7.64187546 7.28917751 7.67438476 7.29076673 7.74202416 7.26255112 7.78022119 7.19078532 7.7784368 7.16293216 7.77773978 7.13505112 7.77913383 7.10717007 7.77913383 6.74014405 7.77918959 6.37309015 7.77936804 6.00606413 7.77905019 5.82762546 7.77882714 5.82676115 7.77824164 5.82673327 7.60186617 5.82648234 6.14764684 5.82662175 4.69339963 5.82648234 3.2391803 5.82648234 3.19273048 5.82835037 3.14591822 5.8231645 3.09999814 5.82040428 3.07549071 5.80451208 3.05246097 5.78714219 3.01116914M19.8832946 7.78008178C18.8426348 7.78008178 17.8020028 7.78010967 16.7613151 7.7800539 16.7194935 7.7800539 16.6775604 7.78189405 16.635934 7.77893866 16.5484991 7.77272119 16.533276 7.75334387 16.5441496 7.66334387 16.5939173 7.25207063 16.6747444 6.84768401 16.8237686 6.45966357 17.0875511 5.77281413 17.5166125 5.22372491 18.1684433 4.86428253 18.5053578 4.67848327 18.8677835 4.56472862 19.2476626 4.51047212 19.4311199 4.48429182 19.6168634 4.45922677 19.8015753 4.45914246 20.5744099 4.45878067 21.3071236 4.60747026 21.9401905 5.0853513 22.4254322 5.45156877 22.7506366 5.9349145 22.9597723 6.50154089 23.1005437 6.88289777 23.1752928 7.27852974 23.2246701 7.68029554 23.2326998 7.74570446 23.2111199 7.77835316 23.1446236 7.77893866 23.1028299 7.779329 23.0610084 7.7800539 23.0192147 7.7800539 21.9738987 7.78010967 20.9285827 7.78008178 19.8832946 7.78008178"/>
    <g transform="translate(11.013 .95)">
      <mask id="mitid-b" fill="#fff">
        <use xlink:href="#mitid-a"/>
      </mask>
      <path fill="#0073D4" d="M3.51905855,5.53989312 C3.52455112,5.60555297 3.53079647,5.64623141 3.53090799,5.68690985 C3.53169194,6.00748606 3.53210688,6.32806227 3.5310474,6.64861059 C3.53057342,6.78943773 3.52126115,6.81249535 3.38444888,6.84241171 C3.19934665,6.8828671 3.0114842,6.92092472 2.82303625,6.93366636 C2.52169796,6.95401952 2.22077788,6.9422816 1.92521097,6.86008829 C1.31826859,6.69124071 0.976474907,6.28718866 0.870108736,5.67709572 C0.843203532,5.52277416 0.83726487,5.36326673 0.836623606,5.20607342 C0.833333643,4.42094331 0.835145911,3.6358132 0.8348671,2.85068309 C0.834755576,2.62875 0.83057342,2.62490242 0.60930948,2.62431691 C0.451335502,2.62387082 0.293361524,2.62582249 0.135443309,2.62339684 C0.0177016729,2.62158457 0.00576858736,2.61034851 0.00515520446,2.49564591 C0.00348234201,2.19369424 0.00351022305,1.89171468 0.00512732342,1.58973513 C0.00568494424,1.48083178 0.0160845725,1.47112918 0.125824349,1.4699303 C0.306995353,1.46800651 0.488194238,1.47004182 0.669393123,1.46909387 C0.822989777,1.4683132 0.833751859,1.45877788 0.834393123,1.30108271 C0.835842937,0.934056691 0.834671933,0.56705855 0.835062268,0.200032528 C0.835285316,0.0140659851 0.835787175,0.0134804833 1.01985781,0.0132574349 C1.37757156,0.0128671004 1.7353132,0.0131180297 2.09305483,0.0131737918 C2.11627974,0.0131737918 2.13953253,0.0142890335 2.16272955,0.0137035316 C2.23034108,0.011919145 2.26859387,0.0397723048 2.26583364,0.112123606 C2.26460688,0.144577138 2.26608457,0.177142193 2.26611245,0.209679368 C2.26614033,0.576677509 2.26541543,0.943703532 2.26658643,1.31070167 C2.26708829,1.46128717 2.27461617,1.46842472 2.42422584,1.46898234 C2.71226487,1.47004182 3.00033178,1.46881506 3.28834294,1.46959572 C3.43926301,1.46995818 3.44575929,1.4759526 3.4463448,1.6263987 C3.44743216,1.90512546 3.44754368,2.18388011 3.44626115,2.46263476 C3.44553625,2.61124071 3.43421654,2.62292286 3.28864963,2.62373141 C3.02851952,2.62518123 2.76833364,2.62409387 2.50817565,2.6243448 C2.46638197,2.62437268 2.4242816,2.6228671 2.38287825,2.6272723 C2.28875186,2.63730948 2.27232993,2.65479089 2.26731134,2.74861059 C2.26455112,2.79957714 2.26614033,2.85079461 2.26614033,2.90190056 C2.26614033,3.59875929 2.26505297,4.29561803 2.26761803,4.99244888 C2.2679526,5.08437268 2.2760381,5.17911245 2.29940242,5.26752323 C2.36584294,5.51923327 2.55744145,5.65774628 2.84943959,5.67545074 C3.02838011,5.68629647 3.20012732,5.64871283 3.36833364,5.59136152 C3.41121468,5.57672398 3.45406784,5.56208643 3.51905855,5.53989312" mask="url(#mitid-b)"/>
    </g>
    <path fill="#0073D4" d="M19.8808996 3.68009665C18.8937435 3.69755019 18.0396357 2.87603532 18.0419174 1.8394461 18.0440409.873869888 18.7952119-.00114869888 19.8867546.0000211308371 20.96221.00116542751 21.7346543.863776952 21.7261506 1.85893494 21.7172565 2.89150929 20.8685855 3.69732714 19.8808996 3.68009665M8.70354368 5.09699442C8.70354368 4.27004275 8.70351196 3.44311896 8.70359944 2.61616729 8.70362732 2.57434572 8.70343216 2.53252416 8.70535595 2.49075836 8.70741914 2.44678996 8.73251208 2.42323048 8.77609015 2.42060967 8.80385967 2.41893294 8.83179647 2.41902045 8.85964963 2.41899257 9.24061617 2.41893294 9.62155483 2.41893294 10.0024935 2.41902045 10.0303467 2.41902045 10.0582556 2.41921561 10.086053 2.421 10.1306905 2.42384387 10.1525493 2.45038662 10.1545288 2.4933513 10.1562574 2.53046097 10.1559786 2.56765428 10.1559786 2.6048197 10.1560344 4.26803532 10.1560344 5.93119517 10.1560344 7.59435502 10.1560344 7.59901115 10.1560344 7.60366729 10.1560065 7.60829554 10.155198 7.77800743 10.155198 7.7787881 9.98590428 7.77898327 9.61425 7.77951301 9.24259572 7.77954089 8.87094145 7.77898327 8.70418494 7.77876022 8.70368309 7.77789591 8.70362732 7.6057026 8.70343216 6.76946654 8.70354368 5.93323048 8.70354368 5.09699442M9.42289405 1.72546221C8.94200186 1.72386803 8.55643494 1.3346487 8.5654684.850522305 8.57363755.412232342 8.91113755-.00871561338 9.43683457.000206319703 10.0129405.0100204461 10.2922528.462669145 10.2941871.864072491 10.2965186 1.34624721 9.90821933 1.72704647 9.42289405 1.72546221"/>
  </g>
</svg>
